<svg width="499" height="155" viewBox="0 0 499 155" fill="none" xmlns="http://www.w3.org/2000/svg">
<mask id="mask0_8568_399" style="mask-type:luminance" maskUnits="userSpaceOnUse" x="354" y="43" width="10" height="112">
<path d="M354.666 43H363.999V154.375H354.666V43Z" fill="white"/>
</mask>
<g mask="url(#mask0_8568_399)">
<path d="M358.859 154.625L362.677 43.3438H355.047L358.859 154.625Z" fill="#98C1D9"/>
</g>
<mask id="mask1_8568_399" style="mask-type:luminance" maskUnits="userSpaceOnUse" x="332" y="0" width="54" height="53">
<path d="M332.359 0.375H385.333V52.3333H332.359V0.375Z" fill="white"/>
</mask>
<g mask="url(#mask1_8568_399)">
<path d="M385.301 26.0833C385.301 26.9271 385.26 27.7656 385.176 28.6042C385.093 29.4427 384.963 30.2708 384.796 31.099C384.624 31.9219 384.416 32.7396 384.166 33.5469C383.916 34.349 383.624 35.1406 383.291 35.9219C382.958 36.6979 382.588 37.4583 382.182 38.2031C381.775 38.9427 381.327 39.6667 380.848 40.3646C380.364 41.0677 379.854 41.7396 379.301 42.3906C378.755 43.0417 378.171 43.6667 377.557 44.2604C376.947 44.8542 376.307 45.4219 375.635 45.9531C374.968 46.4896 374.27 46.9896 373.551 47.4583C372.833 47.9271 372.088 48.3594 371.327 48.7552C370.562 49.151 369.781 49.5104 368.979 49.8333C368.182 50.1563 367.364 50.4375 366.536 50.6823C365.708 50.9271 364.869 51.1302 364.02 51.2969C363.171 51.4635 362.317 51.5833 361.452 51.6667C360.593 51.75 359.729 51.7917 358.859 51.7917C357.994 51.7917 357.13 51.75 356.27 51.6667C355.406 51.5833 354.551 51.4635 353.702 51.2969C352.854 51.1302 352.015 50.9271 351.187 50.6823C350.359 50.4375 349.541 50.1563 348.744 49.8333C347.942 49.5104 347.161 49.151 346.395 48.7552C345.63 48.3594 344.89 47.9271 344.171 47.4583C343.452 46.9896 342.755 46.4896 342.088 45.9531C341.416 45.4219 340.775 44.8542 340.161 44.2604C339.551 43.6667 338.968 43.0417 338.421 42.3906C337.869 41.7396 337.354 41.0677 336.874 40.3646C336.395 39.6667 335.947 38.9427 335.541 38.2031C335.135 37.4583 334.76 36.6979 334.432 35.9219C334.098 35.1406 333.807 34.349 333.557 33.5469C333.307 32.7396 333.093 31.9219 332.926 31.099C332.76 30.2708 332.63 29.4427 332.546 28.6042C332.463 27.7656 332.416 26.9271 332.416 26.0833C332.416 25.2396 332.463 24.401 332.546 23.5625C332.63 22.724 332.76 21.8906 332.926 21.0677C333.093 20.2396 333.307 19.4271 333.557 18.6198C333.807 17.8125 334.098 17.0208 334.432 16.2448C334.76 15.4687 335.135 14.7083 335.541 13.9635C335.947 13.2188 336.395 12.5 336.874 11.8021C337.354 11.099 337.869 10.4219 338.421 9.77083C338.968 9.125 339.551 8.5 340.161 7.90625C340.775 7.30729 341.416 6.74479 342.088 6.20833C342.755 5.67708 343.452 5.17708 344.171 4.70833C344.89 4.23958 345.63 3.80729 346.395 3.41146C347.161 3.01042 347.942 2.65104 348.744 2.33333C349.541 2.01042 350.359 1.72396 351.187 1.47917C352.015 1.23437 352.854 1.03125 353.702 0.869792C354.551 0.703125 355.406 0.578125 356.27 0.5C357.13 0.416667 357.994 0.375 358.859 0.375C359.729 0.375 360.593 0.416667 361.452 0.5C362.317 0.578125 363.171 0.703125 364.02 0.869792C364.869 1.03125 365.708 1.23437 366.536 1.47917C367.364 1.72396 368.182 2.01042 368.979 2.33333C369.781 2.65104 370.562 3.01042 371.327 3.41146C372.088 3.80729 372.833 4.23958 373.551 4.70833C374.27 5.17708 374.968 5.67708 375.635 6.20833C376.307 6.74479 376.947 7.30729 377.557 7.90625C378.171 8.5 378.755 9.125 379.301 9.77083C379.854 10.4219 380.364 11.099 380.848 11.8021C381.327 12.5 381.775 13.2188 382.182 13.9635C382.588 14.7083 382.958 15.4687 383.291 16.2448C383.624 17.0208 383.916 17.8125 384.166 18.6198C384.416 19.4271 384.624 20.2396 384.796 21.0677C384.963 21.8906 385.093 22.724 385.176 23.5625C385.26 24.401 385.301 25.2396 385.301 26.0833Z" fill="#98C1D9"/>
</g>
<path d="M343.73 15.7185C338.944 23.0883 339.99 30.9998 344.522 33.9425C339.084 30.4112 335.751 20.9581 340.537 13.5831C345.329 6.20809 354.574 3.91642 360.011 7.44767C354.704 6.156 348.516 8.3435 343.73 15.7185Z" fill="#E8E8E8"/>
<path d="M3.93945 31.9378C3.00716 31.9378 2.19987 31.5993 1.52279 30.917C0.840494 30.2399 0.501953 29.4326 0.501953 28.5003C0.501953 27.5732 0.840494 26.7868 1.52279 26.1462C2.19987 25.4951 3.00716 25.167 3.93945 25.167C4.86654 25.167 5.65299 25.4951 6.29362 26.1462C6.94466 26.7868 7.27279 27.5732 7.27279 28.5003C7.27279 29.4326 6.94466 30.2399 6.29362 30.917C5.65299 31.5993 4.86654 31.9378 3.93945 31.9378ZM1.58529 104.5V47.1045H6.31445V104.5H1.58529Z" fill="#98C1D8"/>
<path d="M22.5332 104.5V47.1045H25.2207L26.8457 60.0003H27.4915C29.6426 55.6253 32.7051 52.1878 36.679 49.6878C40.6478 47.1774 45.0749 45.917 49.9499 45.917C54.6842 45.917 58.9707 47.0628 62.804 49.3545C66.6374 51.6462 69.6634 54.8337 71.8874 58.917C74.1061 63.0003 75.2207 67.7295 75.2207 73.1045V104.5H70.5957V73.2087C70.5957 68.6982 69.6217 64.7243 67.679 61.292C65.7467 57.8493 63.1374 55.1618 59.8457 53.2295C56.554 51.2868 52.8978 50.3128 48.8874 50.3128C44.8717 50.3128 41.2103 51.2868 37.9082 53.2295C34.6165 55.1618 31.9967 57.8493 30.054 61.292C28.1217 64.7243 27.1582 68.6982 27.1582 73.2087V104.5H22.5332Z" fill="#98C1D8"/>
<path d="M117.042 105.792C111.01 105.792 106.526 104.115 103.583 100.75C100.651 97.375 99.1875 92.5365 99.1875 86.2292V50.9583H84.6875V49.25L101.667 35.0625H103.813V47.1042H129.604V51.2917H103.813V85.6875C103.813 90.9948 104.885 94.9375 107.042 97.5208C109.193 100.094 112.63 101.375 117.354 101.375C120.656 101.375 123.292 101.036 125.25 100.354C127.219 99.6771 128.354 99.2656 128.646 99.125L129.604 103.313C129.255 103.385 127.969 103.813 125.75 104.604C123.526 105.396 120.625 105.792 117.042 105.792Z" fill="#98C1D8"/>
<path d="M168.631 105.792C162.391 105.792 156.949 104.521 152.298 101.979C147.641 99.4378 144.027 95.9118 141.443 91.3962C138.86 86.8701 137.568 81.667 137.568 75.792C137.568 69.917 138.907 64.7451 141.589 60.2712C144.282 55.7868 147.886 52.2712 152.402 49.7295C156.912 47.1878 161.969 45.917 167.568 45.917C173.152 45.917 178.214 47.1878 182.756 49.7295C187.308 52.2712 190.912 55.7868 193.568 60.2712C196.219 64.7451 197.548 69.917 197.548 75.792V77.8337H142.298C142.589 82.5003 143.86 86.6253 146.11 90.2087C148.37 93.792 151.423 96.5732 155.256 98.542C159.089 100.516 163.548 101.5 168.631 101.5C173.074 101.5 177.303 100.677 181.318 99.0212C185.329 97.3701 188.735 94.8962 191.527 91.6045L194.548 95.1462C191.24 98.8701 187.329 101.578 182.818 103.271C178.303 104.948 173.574 105.792 168.631 105.792ZM142.298 73.6462H192.818C192.537 68.9951 191.235 64.9118 188.902 61.3962C186.568 57.8857 183.553 55.141 179.86 53.167C176.178 51.1982 172.079 50.2087 167.568 50.2087C163.12 50.2087 159.053 51.1982 155.36 53.167C151.662 55.141 148.652 57.8857 146.318 61.3962C143.995 64.9118 142.657 68.9951 142.298 73.6462Z" fill="#98C1D8"/>
<path d="M211.305 104.5V20.75H215.93V104.5H211.305Z" fill="#98C1D8"/>
<path d="M232.697 104.5V20.75H237.322V104.5H232.697Z" fill="#98C1D8"/>
<path d="M256.027 31.9378C255.095 31.9378 254.288 31.5993 253.611 30.917C252.928 30.2399 252.59 29.4326 252.59 28.5003C252.59 27.5732 252.928 26.7868 253.611 26.1462C254.288 25.4951 255.095 25.167 256.027 25.167C256.954 25.167 257.741 25.4951 258.382 26.1462C259.033 26.7868 259.361 27.5732 259.361 28.5003C259.361 29.4326 259.033 30.2399 258.382 30.917C257.741 31.5993 256.954 31.9378 256.027 31.9378ZM253.673 104.5V47.1045H258.402V104.5H253.673Z" fill="#98C1D8"/>
<path d="M274.621 128.25V47.1045H277.1L278.829 61.3962H279.371C281.871 56.5941 285.413 52.8128 289.996 50.0628C294.59 47.3024 299.715 45.917 305.371 45.917C310.814 45.917 315.757 47.1878 320.204 49.7295C324.647 52.2712 328.173 55.7868 330.788 60.2712C333.413 64.7451 334.725 69.917 334.725 75.792C334.725 81.667 333.413 86.8701 330.788 91.3962C328.173 95.9118 324.647 99.4378 320.204 101.979C315.757 104.521 310.814 105.792 305.371 105.792C299.923 105.792 294.944 104.49 290.434 101.875C285.918 99.2503 282.402 95.6826 279.892 91.167H279.246V128.25H274.621ZM304.725 101.5C309.392 101.5 313.642 100.412 317.475 98.2295C321.309 96.0368 324.35 93.0003 326.6 89.1253C328.861 85.2503 329.996 80.8076 329.996 75.792C329.996 70.7087 328.861 66.2503 326.6 62.417C324.35 58.5837 321.309 55.5941 317.475 53.4378C313.642 51.2868 309.392 50.2087 304.725 50.2087C300.069 50.2087 295.809 51.2868 291.934 53.4378C288.069 55.5941 285.007 58.5837 282.746 62.417C280.496 66.2503 279.371 70.7087 279.371 75.792C279.371 80.8076 280.496 85.2503 282.746 89.1253C285.007 93.0003 288.069 96.0368 291.934 98.2295C295.809 100.412 300.069 101.5 304.725 101.5Z" fill="#98C1D8"/>
<path d="M391.793 104.5V47.1045H394.48L396.105 60.0003H396.751C398.902 55.6253 401.965 52.1878 405.939 49.6878C409.908 47.1774 414.335 45.917 419.21 45.917C423.944 45.917 428.23 47.0628 432.064 49.3545C435.897 51.6462 438.923 54.8337 441.147 58.917C443.366 63.0003 444.48 67.7295 444.48 73.1045V104.5H439.855V73.2087C439.855 68.6982 438.882 64.7243 436.939 61.292C435.007 57.8493 432.397 55.1618 429.105 53.2295C425.814 51.2868 422.158 50.3128 418.147 50.3128C414.132 50.3128 410.47 51.2868 407.168 53.2295C403.876 55.1618 401.257 57.8493 399.314 61.292C397.382 64.7243 396.418 68.6982 396.418 73.2087V104.5H391.793Z" fill="#98C1D9"/>
<path d="M479.528 105.792C475.012 105.792 470.799 105.073 466.882 103.646C462.976 102.219 459.596 100.459 456.736 98.3753L458.549 94.6045C461.059 96.6201 464.111 98.3285 467.695 99.7295C471.278 101.12 475.143 101.813 479.299 101.813C483.893 101.813 487.512 100.792 490.153 98.7503C492.804 96.7087 494.132 94.0785 494.132 90.8545C494.132 87.4795 493.018 84.7035 490.799 82.5212C488.59 80.3285 484.325 78.5941 478.007 77.3128C471.132 75.8701 466.257 73.7399 463.382 70.917C460.518 68.0837 459.09 64.5837 459.09 60.417C459.09 57.766 459.929 55.3493 461.611 53.167C463.304 50.9899 465.653 49.2399 468.653 47.917C471.663 46.5837 475.179 45.917 479.195 45.917C482.57 45.917 485.559 46.2035 488.174 46.7712C490.783 47.3441 493.242 48.0576 495.549 48.917V53.2295C493.393 52.3024 490.971 51.516 488.278 50.8753C485.596 50.2243 482.533 49.8962 479.09 49.8962C474.507 49.8962 470.799 50.9378 467.965 53.0212C465.132 55.0941 463.715 57.5576 463.715 60.417C463.715 62.3649 464.158 64.141 465.049 65.7503C465.95 67.3649 467.549 68.8024 469.84 70.0628C472.132 71.3128 475.429 72.4066 479.736 73.3337C486.762 74.8337 491.684 77.0003 494.507 79.8337C497.34 82.667 498.757 86.3076 498.757 90.7503C498.757 95.042 497.018 98.6253 493.549 101.5C490.075 104.365 485.403 105.792 479.528 105.792Z" fill="#98C1D9"/>
</svg>
